<?xml version="1.0" encoding="UTF-8"?>
<svg width="64px" height="64px" viewBox="0 0 64 64" version="1.1" xmlns="http://www.w3.org/2000/svg" xmlns:xlink="http://www.w3.org/1999/xlink">
    <!-- Generator: Sketch 49.3 (51167) - http://www.bohemiancoding.com/sketch -->
    <title>Group 8 Copy</title>
    <desc>Created with Sketch.</desc>
    <defs></defs>
    <g id="icons" stroke="none" stroke-width="1" fill="none" fill-rule="evenodd">
        <g id="sub-brands" transform="translate(-257.000000, -1240.000000)">
            <g id="Group-8-Copy" transform="translate(257.000000, 1240.000000)">
                <circle id="Oval" fill="#FFD451" cx="32" cy="32" r="32"></circle>
                <path d="M5.33333333,32 C5.33333333,17.2724067 17.2724067,5.33333333 32,5.33333333 C39.3637967,5.33333333 46.0304633,8.31810167 50.8561808,13.1438192 C46.0304633,8.31810167 39.3637967,5.33333333 32,5.33333333 C19.4815457,5.33333333 9.33333333,15.4815457 9.33333333,28 C9.33333333,40.5184543 19.4815457,50.6666667 32,50.6666667 C31.9999823,50.6667131 31.2166182,52.723128 29.1808955,54.6666667 C27.5982849,56.1776116 25.8713198,57.1040095 24,57.4458606 C25.2627216,57.8424585 26.5659178,58.14766 27.9018355,58.3537121 C15.1198248,56.3822139 5.33333333,45.3339857 5.33333333,32 Z" id="Combined-Shape" fill="#F2AE00"></path>
                <path d="M9.33333333,28 C9.33333333,40.5184543 19.4815457,50.6666667 32,50.6666667 C31.9999823,50.6667131 31.2166182,52.723128 29.1808955,54.6666667 C27.5982849,56.1776116 25.8713198,57.1040095 24,57.4458606 C26.5254433,58.2390565 29.2127848,58.6666667 32,58.6666667 C46.7275933,58.6666667 58.6666667,46.7275933 58.6666667,32 C58.6666667,17.2724067 46.7275933,5.33333333 32,5.33333333 C19.4815457,5.33333333 9.33333333,15.4815457 9.33333333,28 Z" id="Combined-Shape" fill="#FFFFFF"></path>
                <g id="Porch-Logo-Copy-2" transform="translate(16.000000, 17.333333)">
                    <polyline id="Fill-6" fill="#FFD451" points="0 10.7166354 0 21.3333333 16 10.6171382 16 1.77635684e-15 0 10.7166354"></polyline>
                    <polyline id="Fill-7" fill="#F2AE00" points="32 10.7166354 32 21.3333333 16 10.6171382 16 1.77635684e-15 32 10.7166354"></polyline>
                </g>
            </g>
        </g>
    </g>
</svg>