<svg width="20" height="20" viewBox="0 0 20 20" fill="none" xmlns="http://www.w3.org/2000/svg">
<path d="M4.447 20C1.996 20 0 17.9698 0 15.4755L0 10.5144C0 8.02515 1.99 6 4.437 6L15.553 6C18.005 6 20 8.03024 20 10.5256V15.4846C20 17.9748 18.01 20 15.563 20H14.623H4.447Z" fill="#0049F9"/>
<path d="M9.45504 0.221077L6.54604 3.06687C6.24604 3.36099 6.24604 3.83431 6.54804 4.12746C6.85004 4.41964 7.33704 4.41867 7.63704 4.12552L9.23004 2.56627V4.06124V12.4515C9.23004 12.8655 9.57504 13.2015 10 13.2015C10.426 13.2015 10.77 12.8655 10.77 12.4515V2.56627L12.363 4.12552C12.663 4.41867 13.15 4.41964 13.452 4.12746C13.603 3.9804 13.679 3.78854 13.679 3.5957C13.679 3.40482 13.603 3.21295 13.454 3.06687L10.546 0.221077C10.401 0.0798588 10.205 -2.86102e-06 10 -2.86102e-06C9.79604 -2.86102e-06 9.60004 0.0798588 9.45504 0.221077" fill="#F2A92C"/>
</svg>
