<svg width="20" height="16" viewBox="0 0 20 16" fill="none" xmlns="http://www.w3.org/2000/svg">
<path d="M11.7505 5.70302V3.68317C11.354 3.68317 11.0251 3.36375 11.0251 2.97857V0.573546C11.0251 0.253189 10.764 0.000473022 10.4352 0.000473022H3.7911C1.70213 0.000473022 0 1.65299 0 3.68317V6.11544C0 6.30427 0.0773694 6.48277 0.212766 6.6143C0.348162 6.74488 0.531915 6.82004 0.725339 6.82004C1.46035 6.82004 2.02128 7.32735 2.02128 7.99437C2.02128 8.69051 1.45068 9.24479 0.73501 9.25325C0.338491 9.25325 0 9.52569 0 9.92027V12.3262C0 14.3555 1.70213 15.9995 3.78143 15.9995H10.4352C10.764 15.9995 11.0251 15.7449 11.0251 15.4265V13.3963C11.0251 13.0026 11.354 12.6917 11.7505 12.6917V10.8701C11.354 10.8701 11.0251 10.5497 11.0251 10.1655V6.40761C11.0251 6.02243 11.354 5.70302 11.7505 5.70302" fill="#0049F9"/>
<path d="M17.9782 7.99483C17.9782 8.69004 18.5585 9.24432 19.2645 9.25371C19.661 9.25371 19.9995 9.52616 19.9995 9.91134V12.3258C19.9995 14.3559 18.3071 16 16.2181 16H13.0653C12.7461 16 12.4753 15.7454 12.4753 15.426V13.3967C12.4753 13.0022 12.1562 12.6921 11.75 12.6921V10.8705C12.1562 10.8705 12.4753 10.5502 12.4753 10.1659V6.40808C12.4753 6.02196 12.1562 5.70348 11.75 5.70348V3.6827C12.1562 3.6827 12.4753 3.36328 12.4753 2.9781V0.574012C12.4753 0.253655 12.7461 0 13.0653 0H16.2181C18.3071 0 19.9995 1.64406 19.9995 3.6733V6.04075C19.9995 6.22864 19.9221 6.40808 19.7868 6.53866C19.6514 6.67019 19.4676 6.74535 19.2742 6.74535C18.5585 6.74535 17.9782 7.30996 17.9782 7.99483" fill="#F2A92C"/>
</svg>
